HIERARCHY
ROOT Hips
{
	OFFSET 0.000000 0.000000 0.000000
	CHANNELS 6 Xposition Yposition Zposition Yrotation Xrotation Zrotation
	JOINT Chest
	{
		OFFSET 0.000000 -0.009281 11.569106
		CHANNELS 3 Yrotation Xrotation Zrotation
		JOINT Chest2
		{
			OFFSET -0.000000 0.016865 9.269641
			CHANNELS 3 Yrotation Xrotation Zrotation
			JOINT Chest3
			{
				OFFSET -0.000000 0.000001 8.374491
				CHANNELS 3 Yrotation Xrotation Zrotation
				JOINT Chest4
				{
					OFFSET -0.000000 0.000001 8.374493
					CHANNELS 3 Yrotation Xrotation Zrotation
					JOINT Neck
					{
						OFFSET -0.000000 0.000002 12.152554
						CHANNELS 3 Yrotation Xrotation Zrotation
						JOINT Head
						{
							OFFSET -0.000000 0.040101 7.802319
							CHANNELS 3 Yrotation Xrotation Zrotation
							End Site
							{
								OFFSET -0.000000 0.020947 14.853096
							}
						}
					}
					JOINT RightCollar
					{
						OFFSET 2.894404 0.000001 6.791374
						CHANNELS 3 Yrotation Xrotation Zrotation
						JOINT RightShoulder
						{
							OFFSET 13.574684 0.000001 0.000000
							CHANNELS 3 Yrotation Xrotation Zrotation
							JOINT RightElbow
							{
								OFFSET 23.923903 0.000002 0.000000
								CHANNELS 3 Yrotation Xrotation Zrotation
								JOINT RightWrist
								{
									OFFSET 19.846718 0.012767 0.000000
									CHANNELS 3 Yrotation Xrotation Zrotation
									End Site
									{
										OFFSET 14.973145 0.000001 0.000000
									}
								}
							}
						}
					}
					JOINT LeftCollar
					{
						OFFSET -2.894404 0.000001 6.791374
						CHANNELS 3 Yrotation Xrotation Zrotation
						JOINT LeftShoulder
						{
							OFFSET -13.574684 -0.000001 0.000000
							CHANNELS 3 Yrotation Xrotation Zrotation
							JOINT LeftElbow
							{
								OFFSET -23.923903 -0.000002 0.000000
								CHANNELS 3 Yrotation Xrotation Zrotation
								JOINT LeftWrist
								{
									OFFSET -19.846718 0.012763 0.000000
									CHANNELS 3 Yrotation Xrotation Zrotation
									End Site
									{
										OFFSET -14.973145 -0.000001 0.000000
									}
								}
							}
						}
					}
				}
			}
		}
	}
	JOINT RightHip
	{
		OFFSET 9.469263 0.004643 0.045487
		CHANNELS 3 Yrotation Xrotation Zrotation
		JOINT RightKnee
		{
			OFFSET 0.000000 0.002661 -40.478676
			CHANNELS 3 Yrotation Xrotation Zrotation
			JOINT RightAnkle
			{
				OFFSET 0.000000 0.049106 -35.224068
				CHANNELS 3 Yrotation Xrotation Zrotation
				JOINT RightToe
				{
					OFFSET -0.000001 12.539529 -6.151390
					CHANNELS 3 Yrotation Xrotation Zrotation
					End Site
					{
						OFFSET -0.000001 5.044994 -1.291870
					}
				}
			}
		}
	}
	JOINT LeftHip
	{
		OFFSET -9.469263 0.004641 0.045487
		CHANNELS 3 Yrotation Xrotation Zrotation
		JOINT LeftKnee
		{
			OFFSET 0.000000 0.002661 -40.478676
			CHANNELS 3 Yrotation Xrotation Zrotation
			JOINT LeftAnkle
			{
				OFFSET 0.000000 0.049106 -35.224068
				CHANNELS 3 Yrotation Xrotation Zrotation
				JOINT LeftToe
				{
					OFFSET -0.000001 12.539529 -6.151390
					CHANNELS 3 Yrotation Xrotation Zrotation
					End Site
					{
						OFFSET -0.000001 5.044994 -1.291870
					}
				}
			}
		}
	}
}
MOTION
Frames: 15
Frame Time: 0.016667
-92.476944 179.802231 84.587418 18.598486 -0.569038 137.982853 2.629022 -2.921806 0.793805 1.114636 -0.946578 0.095343 1.114636 -0.946579 0.095341 0.836107 -0.709763 0.073232 3.455102 -21.367402 0.419130 6.383298 -3.585290 1.752605 10.380910 2.159895 -3.351931 60.287641 4.035106 -26.241440 -11.330105 -26.109583 -14.292273 -0.909759 0.007023 2.567793 -8.747994 -2.215573 -3.203313 -86.168785 1.968461 -14.788352 -13.564681 13.384053 -29.505861 0.648245 5.013900 -21.039776 12.182638 3.606786 8.836589 1.853218 -8.878131 1.232037 9.278767 -4.310501 0.536863 -1.539849 2.876200 0.247240 4.082696 -15.349552 -8.625056 1.838177 -35.064012 10.780386 14.880756 -16.237359 -15.734058 2.710128 53.842764 3.885145 
-94.846909 179.644547 85.073952 19.470506 -0.842729 138.742480 2.266242 -3.620443 1.406887 1.241326 -0.964219 0.035786 1.241328 -0.964221 0.035787 0.931032 -0.723096 0.028792 4.130072 -21.162783 0.217848 7.555544 -3.225169 1.592263 10.253091 1.619802 -3.990737 59.128285 4.513557 -24.777724 -11.393120 -25.679155 -13.846224 -1.995518 -0.179344 1.942789 -8.197283 -3.262454 -3.674258 -86.610719 1.932445 -15.214984 -14.742627 14.695405 -29.718016 0.818972 6.608966 -21.329885 12.513739 1.352597 6.637907 2.945714 -8.650874 0.839992 7.416026 -2.925972 2.203297 -0.980814 2.191750 0.059698 5.121605 -12.337538 -8.141965 2.213284 -40.772370 10.966220 17.961919 -22.459935 -16.195241 -0.630758 61.720977 1.467537 
-96.685570 179.165207 84.706551 18.949513 -2.192783 139.860445 0.367341 -4.477143 1.838821 1.373160 -0.936690 -0.013803 1.373159 -0.936690 -0.013802 1.029826 -0.702552 -0.008239 4.725487 -20.882480 -0.044071 8.569372 -2.717811 1.306369 10.307399 0.588664 -4.150371 58.444262 4.833631 -22.827174 -11.225477 -25.627039 -13.637292 -2.104578 -0.918828 1.219209 -7.938181 -4.010663 -3.957625 -86.652445 1.039075 -15.317468 -15.983083 16.942409 -30.200597 1.605459 7.109696 -21.041485 10.987306 -1.148747 3.669739 3.785472 -7.606751 0.231853 5.320380 -3.688521 3.720299 -0.033640 3.288295 0.616607 4.189363 -9.168082 -6.949813 3.962848 -45.449414 8.510779 19.880316 -28.008437 -15.777595 -4.712802 64.601486 -1.164467 
-98.100609 178.333145 84.106552 18.996114 -2.223438 142.496078 0.041828 -4.812124 0.773121 1.545743 -0.912898 -0.045077 1.545743 -0.912898 -0.045081 1.159214 -0.684792 -0.031499 5.195029 -20.535230 -0.332639 9.349662 -2.077804 0.942804 10.419838 0.320118 -3.831189 58.280515 4.210407 -21.482827 -11.264464 -25.554282 -13.655401 -1.425157 -1.830995 0.601891 -8.068797 -3.855030 -3.804817 -86.412528 -0.542849 -14.660839 -16.847937 19.405659 -30.457528 2.827570 7.177028 -20.775067 11.591138 -2.037811 0.347390 4.087525 -7.571063 -0.335060 3.983151 -3.773956 5.494507 0.069486 4.215820 -0.143477 4.676793 -5.551016 -7.123946 6.581555 -48.925977 5.552421 21.175883 -29.778006 -14.813798 -10.722746 63.270815 -5.149278 
-99.584175 177.937027 83.491798 19.308089 -0.740169 144.904075 0.953359 -4.047474 -0.118261 1.734125 -0.952928 -0.037212 1.734127 -0.952929 -0.037211 1.300507 -0.714808 -0.025202 5.560218 -20.124451 -0.626909 9.940696 -1.313537 0.544957 10.525400 0.430132 -3.280780 58.598228 2.940368 -20.201005 -11.532105 -25.139476 -13.794142 -0.555210 -2.703347 -0.149342 -8.270534 -3.480712 -3.323499 -86.293956 -2.126070 -14.064263 -16.620360 21.154935 -29.824472 4.122096 7.728904 -20.991798 13.260858 -1.435662 -1.370716 4.253943 -8.266802 0.361723 2.981866 -2.376400 4.273966 0.411935 4.270338 -0.070487 5.727332 -0.828224 -6.969337 9.294925 -51.218701 2.825795 23.550335 -30.007473 -13.619210 -18.842981 62.592373 -11.100731 
-100.736496 177.293686 82.869125 19.507719 0.655002 146.771941 1.826209 -3.279480 -0.489743 1.873248 -1.070740 0.013440 1.873248 -1.070741 0.013436 1.404920 -0.803024 0.013363 5.873374 -19.628075 -0.920524 10.439813 -0.387389 0.140950 10.467056 -0.064919 -2.933505 59.398214 1.659074 -17.794629 -11.861551 -24.440439 -13.914999 0.193594 -3.523878 -1.137647 -8.525848 -2.743163 -2.979731 -86.286832 -2.782889 -13.309307 -15.335837 21.657022 -28.087367 5.488374 8.990906 -21.982996 14.531921 -0.816523 -1.733464 4.925000 -8.755634 1.331528 2.135611 -0.487551 2.627051 0.356628 3.641867 -0.495370 6.091365 4.149091 -6.706276 10.951210 -52.697693 0.917953 25.596687 -29.627581 -12.543560 -24.698685 62.265357 -15.192216 
-101.986343 176.458832 82.287987 20.077317 1.244951 148.515825 2.713075 -3.414294 -0.751729 1.921166 -1.217577 0.083125 1.921166 -1.217577 0.083119 1.440985 -0.912931 0.066170 6.174208 -19.087061 -1.198121 10.922641 0.621283 -0.232226 10.137612 -1.155746 -3.094601 60.519936 0.459364 -14.239613 -12.088912 -24.057548 -13.800485 1.126732 -4.310921 -2.323951 -8.605349 -2.561396 -3.009038 -86.384305 -2.320563 -12.973133 -13.734957 21.315345 -25.900856 7.269216 10.361127 -23.585439 15.476532 -1.170768 -1.972383 5.754449 -9.248963 0.370492 1.054849 1.333900 2.260039 0.515470 3.195883 -0.482468 6.246159 8.190711 -7.551005 10.538366 -53.696980 1.262223 26.785897 -27.930266 -12.204494 -25.800411 60.108069 -15.126887 
-103.183990 175.444778 81.748154 20.690573 1.693866 150.027701 3.650062 -3.683035 -0.799441 1.891453 -1.327024 0.165826 1.891452 -1.327024 0.165825 1.418885 -0.994767 0.128475 6.454605 -18.608888 -1.458142 11.371039 1.513498 -0.582438 9.842429 -2.107967 -3.390656 61.518086 -0.672041 -10.529626 -12.041546 -24.565773 -13.447901 2.408748 -4.643492 -3.498646 -8.499172 -3.072613 -3.320929 -86.490747 -1.305464 -12.868323 -12.424151 21.078225 -23.996358 9.476833 11.079058 -25.262824 16.665043 -1.678599 -2.916263 5.886817 -9.780451 -0.669416 0.361521 3.098632 3.050228 0.568462 2.777692 -0.756077 6.409449 12.185385 -9.603289 8.043572 -54.316359 3.529128 26.975149 -26.096751 -11.549824 -24.871096 56.633412 -13.409371 
-104.379776 174.401932 81.255356 21.260253 2.009599 150.716621 4.507532 -4.022873 -0.178507 1.841441 -1.373281 0.257050 1.841439 -1.373281 0.257050 1.381594 -1.029199 0.196916 6.641037 -18.275013 -1.667207 11.657754 2.139408 -0.879416 9.870671 -2.457883 -3.247887 61.928348 -1.744401 -7.442315 -11.580082 -25.504906 -12.944061 3.802890 -4.502608 -4.505822 -8.476185 -3.200715 -3.309074 -86.597933 -0.314306 -11.909740 -11.465781 21.266672 -22.453187 11.730775 10.913476 -26.679286 17.688887 -2.394577 -3.809877 5.960593 -10.481992 -0.373371 -0.565943 4.888543 2.871296 0.797700 2.356364 -0.726153 6.603542 15.974629 -11.492652 4.326385 -54.326925 6.504866 26.480859 -24.791172 -9.827441 -23.670388 52.265820 -11.678946 
-105.448708 173.192520 80.818672 21.583314 1.930870 150.901910 5.001776 -4.515345 0.715299 1.788217 -1.375135 0.364896 1.788217 -1.375136 0.364896 1.341918 -1.030294 0.277686 6.706313 -18.097339 -1.816469 11.735109 2.477462 -1.118080 10.011417 -2.454901 -3.045774 62.095565 -3.284778 -4.575663 -10.842287 -25.880652 -12.423525 4.780285 -4.214756 -5.222605 -8.668546 -2.713949 -2.948957 -86.531947 0.865649 -10.024318 -10.582627 21.625163 -20.901489 13.436917 10.332215 -27.815725 18.134586 -3.462189 -4.402829 6.147826 -11.175265 0.555666 -1.465742 6.630419 2.363149 0.906847 1.915912 -0.865229 6.522493 19.079807 -12.497347 1.044870 -53.206122 9.029051 25.424182 -23.787732 -7.689551 -21.881699 47.184077 -9.740736 
-106.434319 171.895187 80.458015 21.584718 1.700173 150.855246 5.225573 -4.929753 1.614933 1.723646 -1.393415 0.493682 1.723646 -1.393415 0.493683 1.293797 -1.043680 0.374175 6.637750 -18.003810 -1.892190 11.587170 2.660347 -1.272382 10.109339 -2.747195 -2.887582 62.376586 -5.011203 -1.122124 -10.193801 -25.511935 -11.869353 4.994924 -3.897111 -5.598241 -8.891710 -2.182146 -2.536557 -86.325320 2.622892 -8.080664 -9.444407 21.871867 -18.954658 14.264817 10.046890 -28.732758 18.180611 -4.607115 -4.654380 6.250516 -11.815696 1.096222 -2.255334 8.249494 1.995694 1.020448 1.559749 -0.867549 6.415745 21.567473 -12.576582 -1.226076 -50.974357 11.236360 24.137849 -22.363463 -6.373257 -19.298474 41.484038 -7.550745 
-107.304260 170.519958 80.153770 21.043285 1.516365 150.863333 5.068782 -5.021260 2.331379 1.631264 -1.438306 0.661617 1.631263 -1.438306 0.661614 1.224943 -1.076974 0.500030 6.471386 -17.933910 -1.927361 11.271623 2.800703 -1.386585 10.297083 -3.257397 -2.819651 62.642896 -6.599908 2.816300 -9.819837 -24.847586 -11.130928 4.398373 -3.542871 -5.500047 -8.961280 -1.942664 -2.408112 -86.053191 4.966891 -6.438699 -8.021356 22.041823 -16.615417 14.480841 10.471546 -29.468363 17.795740 -5.452039 -4.899982 6.166207 -12.458179 1.349527 -2.831241 9.876130 1.869404 1.096033 1.195676 -0.834916 6.114114 23.653500 -11.905795 -2.398863 -47.707358 12.817056 22.654008 -20.520637 -5.742638 -16.227467 35.205838 -5.418249 
-108.118591 169.104904 79.935768 20.191219 1.450589 150.928644 4.785035 -4.848510 2.864786 1.533927 -1.494828 0.841153 1.533928 -1.494828 0.841154 1.152440 -1.119020 0.634588 6.188216 -17.877907 -1.913086 10.756803 2.916382 -1.450070 10.580752 -3.658602 -2.783370 62.653687 -8.022883 6.920710 -9.569773 -24.390838 -10.294742 3.033646 -3.246923 -4.668360 -8.916352 -1.742467 -2.389212 -85.741742 7.273329 -4.752410 -6.428066 22.516588 -14.082488 14.492178 11.527330 -29.930791 17.231753 -6.133755 -5.229504 5.863892 -12.943874 1.769153 -3.208272 11.409275 1.656380 1.127155 0.835015 -0.748534 5.764298 25.270715 -10.516268 -2.539646 -43.440010 12.908525 20.700189 -19.044919 -5.027260 -12.842912 28.781840 -3.629656 
-108.901169 167.610519 79.749214 19.322574 1.319464 150.920324 4.536852 -4.658258 3.285384 1.460117 -1.555419 1.012247 1.460116 -1.555421 1.012247 1.097602 -1.164158 0.762861 5.773332 -17.866059 -1.831707 10.020326 2.950239 -1.437433 10.923854 -3.978333 -2.667772 62.319459 -9.041688 11.060058 -9.259116 -24.507998 -9.437964 0.709108 -3.019738 -2.914066 -8.852265 -1.405298 -2.260821 -85.263922 8.979815 -2.771462 -4.750214 23.651321 -11.456263 14.567829 12.662124 -29.948009 16.581041 -6.934981 -5.505778 5.489612 -13.337794 2.197353 -3.360348 12.763978 1.515151 1.056931 0.585013 -0.689003 5.481257 26.188376 -8.445281 -1.986669 -38.597375 11.721936 18.283160 -18.211924 -4.228878 -9.232689 22.828114 -2.239271 
-109.620842 166.055298 79.617599 18.408389 1.146296 150.853552 4.286687 -4.346687 3.539417 1.415674 -1.617660 1.177003 1.415675 -1.617660 1.177010 1.064805 -1.210532 0.886448 5.237040 -17.930818 -1.674426 9.083593 2.840779 -1.330487 11.286681 -4.192181 -2.491306 61.838006 -9.664852 15.131878 -8.845962 -25.337732 -8.677322 -2.780355 -2.633875 -0.135808 -8.797781 -1.125129 -2.040236 -84.596708 10.194978 -0.623202 -2.921942 25.300213 -8.670861 14.795184 13.415953 -29.490643 15.785033 -7.778436 -5.664783 5.152005 -13.686960 2.453114 -3.393412 13.872914 1.454867 0.973866 0.508621 -0.576846 5.262821 26.540409 -6.069288 -1.558748 -33.397272 10.383509 16.084001 -17.810864 -3.544916 -5.879004 17.457661 -1.301907 
